<?xml version="1.0" encoding="UTF-8" standalone="no"?><!DOCTYPE svg PUBLIC "-//W3C//DTD SVG 1.1//EN" "http://www.w3.org/Graphics/SVG/1.1/DTD/svg11.dtd"><svg width="100%" height="100%" viewBox="0 0 534 534" version="1.1" xmlns="http://www.w3.org/2000/svg" xmlns:xlink="http://www.w3.org/1999/xlink" xml:space="preserve" xmlns:serif="http://www.serif.com/" style="fill-rule:evenodd;clip-rule:evenodd;stroke-linejoin:round;stroke-miterlimit:2;"><g><path d="M158.943,94.309l-40.342,-0c-29.166,0.427 -54.814,-19.965 -60.972,-48.476l-11.796,0l0,37.704c0,23.638 19.452,43.089 43.09,43.089l70.02,0l0,-32.317Z" style="fill:#a3a3a3;fill-rule:nonzero;"/><path d="M475.704,45.833c-6.157,28.511 -31.806,48.903 -60.971,48.476l-40.343,-0l0,32.317l70.021,0c23.638,0 43.089,-19.451 43.089,-43.089l-0,-37.704l-11.796,0Z" style="fill:#a3a3a3;fill-rule:nonzero;"/><path d="M379.776,148.171l-75.406,-0c-5.91,-0 -10.772,-4.863 -10.772,-10.773c-0,-5.909 4.862,-10.772 10.772,-10.772l48.476,0l-0,-32.317l-172.358,-0l-0,32.317l48.475,0c5.91,0 10.773,4.863 10.773,10.772c-0,5.91 -4.863,10.773 -10.773,10.773l-75.406,-0c-23.638,-0 -43.09,19.451 -43.09,43.089l0,129.268c0,23.639 19.452,43.09 43.09,43.09c5.909,-0 10.772,4.863 10.772,10.772l0,37.703c0,41.367 34.04,75.407 75.407,75.407l53.862,-0c41.366,-0 75.406,-34.04 75.406,-75.407l0,-37.703c0,-5.909 4.863,-10.772 10.772,-10.772c23.639,-0 43.09,-19.451 43.09,-43.09l-0,-129.268c-0,-23.638 -19.451,-43.089 -43.09,-43.089Zm-204.674,145.427c-17.729,-0 -32.317,-14.589 -32.317,-32.318l-0,-21.544c-0,-17.729 14.588,-32.317 32.317,-32.317c17.728,-0 32.317,14.588 32.317,32.317l-0,21.544c-0,17.729 -14.589,32.318 -32.317,32.318Zm43.089,150.813c-5.909,-0 -10.772,-4.863 -10.772,-10.773c-0,-5.909 4.863,-10.772 10.772,-10.772c5.91,-0 10.772,4.863 10.772,10.772c0,5.91 -4.862,10.773 -10.772,10.773Zm96.951,-0c-5.909,-0 -10.772,-4.863 -10.772,-10.773c-0,-5.909 4.863,-10.772 10.772,-10.772c5.91,-0 10.773,4.863 10.773,10.772c-0,5.91 -4.863,10.773 -10.773,10.773Zm75.407,-183.131c-0,17.729 -14.589,32.318 -32.317,32.318c-17.729,-0 -32.317,-14.589 -32.317,-32.318l-0,-21.544c-0,-17.729 14.588,-32.317 32.317,-32.317c17.728,-0 32.317,14.588 32.317,32.317l-0,21.544Z" style="fill:#b66d55;fill-rule:nonzero;"/><path d="M45.833,272.053l0,117.419c24.987,-5.101 43.095,-27.283 43.09,-52.785l-0,-117.419c-24.987,5.101 -43.095,27.283 -43.09,52.785Z" style="fill:#b66d55;fill-rule:nonzero;"/><path d="M444.411,219.268l-0,117.419c-0.006,25.502 18.102,47.684 43.089,52.785l-0,-117.419c0.005,-25.502 -18.102,-47.684 -43.089,-52.785Z" style="fill:#b66d55;fill-rule:nonzero;"/><path d="M358.232,228.963c-5.91,0 -10.773,4.863 -10.773,10.773l0,21.544c0,5.91 4.863,10.773 10.773,10.773c5.909,-0 10.772,-4.863 10.772,-10.773l0,-21.544c0,-5.91 -4.863,-10.773 -10.772,-10.773Z" style="fill-rule:nonzero;"/><path d="M175.102,228.963c-5.91,0 -10.773,4.863 -10.773,10.773l0,21.544c0,5.91 4.863,10.773 10.773,10.773c5.909,-0 10.772,-4.863 10.772,-10.773l-0,-21.544c-0,-5.91 -4.863,-10.773 -10.772,-10.773Z" style="fill-rule:nonzero;"/></g></svg>